<svg width="18" height="18" viewBox="0 0 18 18" fill="none" xmlns="http://www.w3.org/2000/svg">
<path d="M8.78009 0.955113C8.81103 0.69465 9.18898 0.69465 9.21991 0.955113L9.47917 3.14016C9.81395 5.96165 12.0385 8.18617 14.8599 8.52095L17.045 8.78022C17.3055 8.81115 17.3055 9.1891 17.045 9.22003L14.8599 9.47929C12.0385 9.81407 9.81395 12.0386 9.47917 14.8601L9.21991 17.0451C9.18898 17.3056 8.81103 17.3056 8.78009 17.0451L8.52083 14.8601C8.18605 12.0386 5.96152 9.81407 3.14004 9.47929L0.954991 9.22003C0.694528 9.1891 0.694528 8.81115 0.954991 8.78022L3.14004 8.52095C5.96152 8.18617 8.18605 5.96165 8.52083 3.14016L8.78009 0.955113Z" fill="#CCCCCC"/>
</svg>
